<?xml version="1.0" encoding="UTF-8" standalone="no"?>
<!-- Created with Inkscape (http://www.inkscape.org/) -->

<svg
   xmlns:dc="http://purl.org/dc/elements/1.1/"
   xmlns:cc="http://creativecommons.org/ns#"
   xmlns:rdf="http://www.w3.org/1999/02/22-rdf-syntax-ns#"
   xmlns:svg="http://www.w3.org/2000/svg"
   xmlns="http://www.w3.org/2000/svg"
   xmlns:sodipodi="http://sodipodi.sourceforge.net/DTD/sodipodi-0.dtd"
   xmlns:inkscape="http://www.inkscape.org/namespaces/inkscape"
   width="1500"
   height="1500"
   viewBox="0 0 396.87499 396.87501"
   version="1.1"
   id="svg8"
   inkscape:version="0.92.4 (5da689c313, 2019-01-14)"
   sodipodi:docname="Color.svg">
  <defs
     id="defs2" />
  <sodipodi:namedview
     id="base"
     pagecolor="#ffffff"
     bordercolor="#666666"
     borderopacity="1.0"
     inkscape:pageopacity="0.0"
     inkscape:pageshadow="2"
     inkscape:zoom="0.12374369"
     inkscape:cx="286.55305"
     inkscape:cy="821.39359"
     inkscape:document-units="mm"
     inkscape:current-layer="layer1"
     showgrid="false"
     units="px"
     inkscape:window-width="1366"
     inkscape:window-height="664"
     inkscape:window-x="1912"
     inkscape:window-y="-8"
     inkscape:window-maximized="1" />
  <metadata
     id="metadata5">
    <rdf:RDF>
      <cc:Work
         rdf:about="">
        <dc:format>image/svg+xml</dc:format>
        <dc:type
           rdf:resource="http://purl.org/dc/dcmitype/StillImage" />
        <dc:title></dc:title>
      </cc:Work>
    </rdf:RDF>
  </metadata>
  <g
     inkscape:label="Capa 1"
     inkscape:groupmode="layer"
     id="layer1"
     transform="translate(0,99.875017)">
    <g
       id="g4772"
       transform="translate(-43.979993,152.42642)">
      <path
         inkscape:connector-curvature="0"
         id="path4762"
         d="m 224.31675,126.2691 c -11.85282,-10.97725 -28.6617,-27.527329 -63.2148,-62.241388 -28.2333,-28.364828 -35.08254,-35.894481 -33.54254,-36.874598 1.06433,-0.677417 2.53737,-1.240541 3.27343,-1.251415 0.73607,-0.0098 23.76922,22.610073 51.18478,50.268715 l 49.84649,50.288466 8.80478,-9.26048 c 4.84263,-5.09323 12.28804,-12.73922 16.54536,-16.99101 4.25732,-4.25184 7.74059,-8.197126 7.74059,-8.767272 0,-0.570195 3.48326,-4.108143 7.74058,-7.862145 9.01651,-7.950497 21.66035,-20.44734 35.91664,-35.499138 5.56307,-5.873484 11.51364,-11.595716 13.22349,-12.716066 1.70985,-1.120349 3.10886,-2.792657 3.10886,-3.716262 0,-0.923556 0.54855,-1.872759 1.21909,-2.109292 0.67049,-0.236484 11.88949,-10.879828 24.93113,-23.6517725 13.04163,-12.7719934 28.74954,-26.9953165 34.90651,-31.6074045 9.07889,-6.800907 11.07604,-8.899433 10.56811,-11.104405 -0.47492,-2.0624 1.07686,-4.242564 6.42842,-9.030684 3.88009,-3.471552 7.06336,-6.87252 7.07394,-7.557705 0.01,-0.685184 -2.70016,-4.006718 -6.0239,-7.381204 -5.81127,-5.899951 -5.97306,-6.266497 -4.21547,-9.550515 l 1.82766,-3.415083 9.30577,10.151237 9.30572,10.151253 -79.2207,78.695979 C 256.36148,109.36512 234.22738,130.84266 231.70892,131.33532 c -0.8727,0.17066 -4.19917,-2.10904 -7.39217,-5.06622 z M 94.783299,-2.673331 C 82.425489,-15.661134 79.260322,-20.5526 82.084542,-22.298058 c 0.532757,-0.329273 6.193065,4.538164 12.578452,10.816499 17.898926,17.5989022 19.991906,20.0797421 18.336886,21.734741 -0.79073,0.790734 -2.13777,1.437677 -2.99343,1.437677 -0.85566,0 -7.70607,-6.4638662 -15.223151,-14.36419 z M 48.317692,-48.840066 c -1.984765,-2.071654 -3.399608,-4.259917 -3.144083,-4.86282 0.2555,-0.602888 3.552947,-3.95985 7.327618,-7.459927 6.698385,-6.211096 6.842006,-6.272401 5.986441,-2.555257 -0.482135,2.094679 -1.683723,6.296119 -2.670218,9.336519 -0.986489,3.040395 -1.793622,6.378527 -1.793622,7.418062 0,2.85527 -1.712213,2.292179 -5.706136,-1.876577 z M 374.61314,-90.096055 c -9.93374,-9.808434 -43.60528,-43.549675 -74.82566,-74.980545 -31.22037,-31.43086 -59.19981,-59.42228 -62.17651,-62.20316 l -5.41222,-5.05614 -8.77886,9.37451 c -4.82839,5.15598 -12.117,12.65908 -16.19693,16.67356 -4.07994,4.01446 -7.41807,7.71537 -7.41807,8.22422 0,0.50886 -1.85694,2.48422 -4.12653,4.38968 -2.26958,1.90546 -8.6515,7.74292 -14.18203,12.97214 -5.53054,5.22921 -12.52689,11.09893 -15.54747,13.04384 -6.88417,4.43261 -21.83026,19.97913 -35.37199,36.793 -9.18701,11.40691 -41.52576,43.842954 -42.620243,42.748471 -1.327485,-1.327485 4.263569,-12.471171 8.178834,-16.301461 2.538542,-2.48344 8.760659,-8.57059 13.826919,-13.52701 5.06627,-4.95641 28.0975,-27.8879 51.18052,-50.95887 61.74158,-61.70933 70.56057,-69.96462 73.22036,-68.54023 1.21518,0.65077 35.65458,34.47627 76.53199,75.16778 40.87743,40.69151 77.01468,76.462332 80.30498,79.490732 5.31763,4.894285 5.80503,5.790321 4.38564,8.063113 -0.87826,1.40631 -1.89261,2.535095 -2.25411,2.508404 -0.36131,-0.02682 -8.78483,-8.073616 -18.71862,-17.882034 z"
         style="fill:#ffbb44;fill-opacity:1;stroke-width:1.29009795" />
      <path
         inkscape:connector-curvature="0"
         id="path4758"
         d="m 52.804019,43.903306 c -6.214007,-1.301978 -9.923823,-4.035344 -8.532438,-6.286673 0.480623,-0.777667 2.198068,-1.413882 3.816575,-1.413882 1.618507,0 7.359545,-1.129614 12.757858,-2.510291 40.060556,-10.245758 82.510876,-40.6130939 90.648196,-64.846252 3.8054,-11.332556 -0.59397,-23.925743 -9.10456,-26.06177 -1.62161,-0.406996 -5.40453,0.126531 -8.40647,1.185726 -7.29066,2.572289 -10.7,2.429219 -16.84754,-0.707024 -5.37326,-2.741226 -8.51332,-7.415443 -7.22934,-10.761439 0.4111,-1.071312 4.11581,-3.540274 8.23271,-5.486597 9.49858,-4.490584 28.70068,-23.267469 37.02838,-36.208414 3.28829,-5.1099 6.48942,-9.60635 7.11361,-9.99212 2.57213,-1.58967 8.01686,-19.67821 7.61494,-25.29846 -0.6455,-9.02639 -3.54495,-8.35876 -15.17996,3.4953 -11.85783,12.0811 -22.06385,25.6267 -35.50714,47.12568 -5.46549,8.740593 -12.23337,19.237039 -15.03973,23.325449 C 94.692128,-56.731082 79.082096,-17.318815 74.03851,5.5364212 71.895954,15.245531 71.716553,15.541697 67.227076,16.781264 60.937336,18.517935 54.954664,15.61313 52.000778,9.3882837 48.539246,2.0936518 50.063583,-33.810644 54.477293,-48.943724 c 1.759061,-6.031212 3.57305,-13.288011 4.031088,-16.126225 1.938794,-12.013752 9.065902,-36.784331 12.991748,-45.153431 2.3299,-4.96687 5.794577,-12.80422 7.699263,-17.41632 7.371375,-17.84931 13.521736,-27.96776 21.876038,-35.98996 10.97571,-10.53943 17.17067,-10.57063 21.0982,-0.1063 1.3858,3.6923 -1.49715,10.54144 -6.23368,14.8096 -3.44824,3.10725 -16.745419,29.26205 -22.658584,44.56812 -2.342713,6.064066 -6.306011,19.126311 -8.80732,29.027203 -2.501319,9.900896 -5.447126,20.904349 -6.546265,24.452117 -1.099139,3.547769 -2.278273,10.224027 -2.620317,14.836124 l -0.62188,8.385638 3.301376,-9.030683 c 1.815759,-4.966878 3.585582,-10.482048 3.93294,-12.255932 0.347364,-1.773884 5.006793,-11.643135 10.354312,-21.931665 17.146718,-32.989932 37.158638,-61.104622 59.839148,-84.067822 14.3709,-14.55003 18.10788,-16.58867 26.87736,-14.66258 5.76173,1.26549 12.42054,9.35427 14.36169,17.44589 5.89423,24.56996 -10.79723,57.285829 -38.7505,75.952293 -4.42093,2.952194 -7.17979,5.537589 -6.21027,5.819824 0.95946,0.279295 4.35693,1.211262 7.54992,2.071021 13.12745,3.534754 19.86637,12.980075 19.8085,27.763719 C 175.61851,-6.9432096 145.38259,24.275566 97.430438,40.312503 87.920633,43.492946 83.002885,44.34068 72.0852,44.681754 64.634884,44.914337 55.958351,44.564243 52.804019,43.903258 Z M 147.30503,-8.6758822 c 5.57798,-7.7001658 3.82357,-7.6545758 -2.14773,0.055586 -2.73836,3.5359003 -4.2583,6.1887153 -3.37765,5.8951825 0.88065,-0.2935328 3.36707,-2.9715078 5.52538,-5.9509635 z M 171.3772,4.5404575 c -5.4428,-6.5581668 1.75714,-24.2435195 14.85978,-36.5003675 14.16676,-13.25231 28.09525,-17.004664 25.89246,-6.975471 -1.74776,7.957494 -12.87533,17.5408 -15.47784,13.329837 -1.0837,-1.753449 0.60666,-5.276813 2.5316,-5.276813 1.82337,0 8.36228,-7.164878 8.36228,-9.162802 0,-2.631751 -7.64784,2.946065 -15.55961,11.348125 -8.3241,8.839941 -16.07127,21.4423968 -16.89719,27.48693 -0.57756,4.2269214 2.50603,3.7773091 10.95115,-1.5967795 14.59335,-9.2865105 20.52403,-14.9437955 25.70064,-24.5158225 12.19237,-22.544832 31.92817,-48.638637 53.70473,-71.006097 23.43163,-24.067427 35.1479,-28.742767 25.94347,-10.352677 -6.51293,13.012587 -37.97825,51.096706 -64.27371,77.793847 -14.3306,14.54952 -19.56948,21.7898827 -19.56948,27.0459244 0,3.53346225 0.86778,3.36572921 9.50963,-1.8380909 11.28199,-6.7936755 20.25258,-14.2635985 26.00591,-21.6554425 10.49992,-13.490247 26.04001,-23.082061 30.88357,-19.06227 3.89528,3.232806 2.19136,13.862478 -3.58468,22.362457 -1.35372,1.992117 -2.14554,3.93782 -1.75959,4.323753 2.44052,2.440516 27.15422,-17.685689 35.89555,-29.232422 2.65177,-3.502827 3.77329,-4.174914 5.00143,-2.997185 2.58346,2.477427 0.57404,6.97396 -9.46697,21.184596 -15.8109,22.3765479 -15.69269,22.08911 -6.04829,14.70437 8.74588,-6.696707 26.5529,-23.970304 35.56991,-34.504407 3.83714,-4.4827 6.17419,-6.127966 8.70462,-6.127966 1.9025,0 3.4591,0.288315 3.4591,0.640691 0,0.352386 -5.77085,8.31836 -12.82407,17.70218 -13.31748,17.717899 -19.91373,28.027045 -16.71771,26.127761 0.99256,-0.589845 7.20949,-5.176759 13.81534,-10.193088 6.60591,-5.016354 12.21916,-8.83036 12.47388,-8.475585 0.25453,0.354775 2.51673,-2.044441 5.02668,-5.331614 2.5099,-3.287168 7.38654,-8.048972 10.83692,-10.581795 7.53857,-5.533796 24.31573,-13.758844 28.06481,-13.758844 1.68805,0 4.15773,-2.043217 6.6273,-5.482915 15.91334,-22.164566 22.86504,-32.11625 32.85725,-47.036865 10.52325,-15.7136 14.14414,-19.7257 17.80223,-19.7257 3.54273,0 -0.20869,6.41719 -21.01588,35.949815 -37.15516,52.736068 -53.72499,77.524417 -53.72499,80.372027 0,1.521397 9.00717,-4.254324 20.7557,-13.309266 5.38447,-4.149934 10.17393,-7.545329 10.64334,-7.545329 4.53372,0 -11.21915,14.050826 -23.84496,21.268613 -7.53262,4.306156 -11.42437,4.294795 -11.42437,-0.03413 0,-1.802155 1.19163,-5.612479 2.64813,-8.467388 2.51171,-4.923423 2.52287,-5.123713 0.21649,-3.889334 -1.33742,0.715771 -3.22422,2.25638 -4.19293,3.423572 -3.4101,4.108972 -17.73987,13.499877 -20.59962,13.499877 -2.73834,0 -2.86394,-0.414944 -2.33558,-7.719474 l 0.55839,-7.719538 -3.95109,3.180404 c -7.62078,6.134256 -24.60876,17.4300032 -26.20529,17.4245422 -2.38729,-0.00975 -1.95914,-5.4337212 0.96758,-12.2614312 1.4191,-3.310675 2.58019,-6.265502 2.58019,-6.566325 0,-0.300798 -4.20895,3.005567 -9.35321,7.347551 -19.04168,16.0718972 -26.50128,15.0234194 -17.03132,-2.393853 2.91028,-5.352634 2.49957,-7.412099 -0.70753,-3.547788 -0.88331,1.06433 -2.08971,1.935147 -2.68087,1.935147 -0.59116,0 -3.1518,1.40946 -5.69031,3.132137 -2.53852,1.722677 -6.48298,3.537704 -8.76546,4.033345 -2.28249,0.495642 -6.18187,2.492201 -8.66531,4.436734 -6.52389,5.1083492 -15.24041,9.25535365 -18.48294,8.7935514 -2.32219,-0.3305901 -2.91446,-1.4617154 -3.44873,-6.585716 l -0.64505,-6.1864724 -7.87451,5.7414922 c -18.81205,13.7163695 -26.50191,14.5366523 -24.26033,2.5879648 0.44805,-2.3881967 0.43479,-4.34214 -0.0293,-4.34214 -0.46419,0 -3.86693,2.2772683 -7.56164,5.0606128 -6.65086,5.01029322 -18.81529,11.7106431 -21.26062,11.7106431 -0.69701,0 -2.0105,-0.8955189 -2.91887,-1.9900258 z m 74.90668,-11.7466764 c 7.58,-5.0516901 14.15561,-12.6027491 14.15561,-16.2555601 0,-4.174846 4.14368,-13.056111 8.2087,-17.593928 2.60213,-2.904771 2.61208,-3.000481 0.17695,-1.70253 -9.34462,4.980823 -27.73711,28.647756 -27.73711,35.6912755 0,2.5396441 1.22552,2.5067801 5.19586,-0.1394524 z M 347.90536,-19.230874 c 13.91175,-10.077616 37.52344,-35.998392 33.89368,-37.208308 -6.11168,-2.037235 -37.19319,27.129649 -40.63865,38.135277 -1.21523,3.881898 0.41592,3.657702 6.74497,-0.926969 z m -100.3076,-40.033635 c 27.4053,-31.986764 42.96833,-52.869701 40.92443,-54.913601 -2.05445,-2.05445 -43.25364,47.518642 -60.22258,72.463085 -12.38917,18.212171 -7.64506,13.897931 19.29815,-17.549484 z m 21.8462,25.853357 c 1.43352,-2.809953 2.5883,-5.567537 2.56615,-6.127966 -0.0495,-1.254389 -6.39441,8.920741 -6.40362,10.269383 -0.0151,2.182962 1.37779,0.679947 3.83747,-4.141417 z"
         style="fill:#ffbb44;fill-opacity:1;stroke-width:1.29009795" />
    </g>
  </g>
</svg>
